<?xml version="1.0" encoding="UTF-8" standalone="no"?>
<!DOCTYPE svg PUBLIC "-//W3C//DTD SVG 1.1//EN" "http://www.w3.org/Graphics/SVG/1.1/DTD/svg11.dtd">
<svg version="1.1" xmlns="http://www.w3.org/2000/svg" xmlns:xlink="http://www.w3.org/1999/xlink" preserveAspectRatio="xMidYMid meet" viewBox="0 0 640 640" width="640" height="640"><defs><path d="M397.65 132.27L389.12 181.33L441.6 147.63L449.28 98.99L397.65 132.27Z" id="b6j11PldTH"></path><path d="M210.77 247.89L201.81 296.96L253.87 264.11L262.4 214.61L210.77 247.89Z" id="afvwTpEoa"></path><path d="M306.35 188.59L296.96 237.65L349.01 205.23L358.4 156.16L306.35 188.59Z" id="bYwLvUrl1"></path><path d="M458.55 29.1L459.26 29.16L459.96 29.24L460.65 29.35L461.34 29.49L462.03 29.65L462.7 29.84L463.37 30.06L464.03 30.3L464.68 30.56L465.32 30.85L465.95 31.16L466.57 31.5L467.17 31.86L467.76 32.24L468.34 32.65L468.9 33.08L469.45 33.54L469.98 34.02L470.49 34.52L470.99 35.04L471.47 35.58L471.92 36.15L472.36 36.74L472.78 37.34L473.17 37.97L491.09 82.35L491.43 82.99L491.74 83.64L492.02 84.3L492.27 84.96L492.5 85.63L492.69 86.3L492.86 86.98L493 87.66L493.12 88.34L493.21 89.03L493.27 89.71L493.3 90.4L493.31 91.08L493.29 91.76L493.25 92.44L493.18 93.12L493.08 93.79L492.96 94.46L492.81 95.13L492.64 95.79L492.44 96.44L492.22 97.08L491.98 97.72L491.71 98.35L491.41 98.97L491.1 99.58L490.76 100.18L490.39 100.77L490 101.34L489.59 101.91L489.16 102.46L488.7 102.99L488.23 103.51L487.73 104.01L487.2 104.5L486.66 104.97L486.09 105.42L485.5 105.86L484.9 106.27L484.27 106.67L483.88 106.91L482.74 107.62L480.88 108.78L478.32 110.36L475.1 112.36L471.25 114.76L466.79 117.52L461.77 120.63L456.2 124.08L450.13 127.85L443.57 131.9L436.56 136.24L429.14 140.83L421.32 145.65L413.14 150.7L404.64 155.94L395.84 161.36L386.77 166.94L377.46 172.66L367.95 178.51L358.26 184.45L348.42 190.48L338.46 196.56L328.42 202.7L318.33 208.85L308.21 215.02L298.09 221.16L288.02 227.28L278 233.34L268.09 239.33L258.3 245.22L248.66 251.01L239.22 256.67L229.99 262.17L221.01 267.51L212.31 272.66L203.92 277.6L195.87 282.31L188.19 286.78L180.91 290.99L168.11 298.24L268.8 298.24L268.35 298.86L267.91 299.45L267.46 300.01L267.02 300.54L266.58 301.05L266.14 301.52L265.7 301.97L265.26 302.39L264.83 302.79L264.39 303.17L263.96 303.52L263.53 303.86L263.1 304.17L262.67 304.47L262.24 304.76L261.81 305.03L261.38 305.28L260.96 305.52L260.53 305.75L260.11 305.97L259.68 306.19L259.26 306.39L258.84 306.59L258.42 306.78L258 306.97L257.58 307.16L257.16 307.34L256.74 307.53L256.32 307.71L255.9 307.9L255.48 308.09L255.06 308.29L254.65 308.49L254.23 308.7L253.81 308.92L253.4 309.15L252.98 309.39L252.57 309.64L252.15 309.91L251.73 310.19L256.05 311.32L260.36 312.48L264.67 313.68L268.97 314.9L273.26 316.15L277.55 317.43L281.83 318.74L286.1 320.08L290.37 321.45L294.62 322.85L298.87 324.28L303.1 325.75L307.33 327.24L311.54 328.76L315.75 330.32L319.94 331.9L324.12 333.52L328.29 335.17L332.44 336.85L336.59 338.56L340.72 340.3L344.83 342.08L348.93 343.89L353.02 345.73L357.09 347.6L361.14 349.51L365.18 351.45L369.2 353.42L373.21 355.43L377.19 357.47L381.16 359.54L385.11 361.65L389.04 363.79L392.96 365.96L396.85 368.17L400.72 370.41L404.57 372.69L408.4 375L412.21 377.35L416 379.73L415.71 377.72L415.41 375.72L415.1 373.73L414.78 371.74L414.46 369.76L414.13 367.78L413.79 365.81L413.45 363.85L413.09 361.89L412.73 359.93L412.37 357.97L411.99 356.01L411.61 354.06L411.22 352.1L410.82 350.15L410.42 348.19L410.01 346.23L409.6 344.26L409.18 342.29L408.75 340.32L408.31 338.34L407.87 336.36L407.42 334.36L406.97 332.36L406.51 330.35L406.04 328.34L405.57 326.31L405.09 324.27L404.61 322.22L404.12 320.15L403.63 318.08L403.12 315.99L402.62 313.88L402.11 311.76L401.59 309.62L401.07 307.47L400.54 305.3L400.01 303.11L399.47 300.9L398.93 298.67L424.11 298.67L425.18 303.13L426.24 307.58L427.27 312L428.27 316.39L429.26 320.77L430.21 325.12L431.15 329.46L432.05 333.77L432.93 338.07L433.79 342.35L434.61 346.62L435.41 350.87L436.18 355.11L436.92 359.34L437.64 363.55L438.32 367.75L438.97 371.95L439.6 376.13L440.19 380.31L440.75 384.48L441.27 388.65L441.77 392.81L442.23 396.96L442.66 401.12L443.06 405.27L443.42 409.42L443.74 413.58L444.03 417.73L444.29 421.89L444.51 426.05L444.69 430.21L444.83 434.38L444.94 438.56L445.01 442.74L445.04 446.93L445.03 451.13L444.98 455.35L444.89 459.57L444.76 463.8L444.59 468.05L446.54 466.51L448.48 464.97L450.41 463.42L452.34 461.87L454.27 460.31L456.18 458.75L458.09 457.18L460 455.6L461.9 454.02L463.79 452.43L465.67 450.84L467.55 449.24L469.42 447.64L471.29 446.02L473.15 444.41L475 442.78L476.85 441.15L478.69 439.51L480.52 437.87L482.35 436.21L484.17 434.55L485.98 432.89L487.79 431.21L489.59 429.53L491.39 427.84L493.18 426.14L494.96 424.44L496.73 422.72L498.5 421L500.27 419.27L502.02 417.54L503.77 415.79L505.52 414.03L507.26 412.27L508.99 410.5L510.71 408.71L512.43 406.92L514.14 405.12L515.85 403.31L517.55 401.49L516.59 398.27L515.57 395.07L514.49 391.88L513.35 388.72L512.16 385.58L510.91 382.46L509.6 379.37L508.23 376.3L506.81 373.26L505.33 370.25L503.79 367.26L502.21 364.31L500.56 361.39L498.87 358.5L497.12 355.65L495.33 352.83L493.48 350.04L491.58 347.3L489.63 344.59L487.63 341.92L485.58 339.29L483.48 336.71L481.34 334.16L479.15 331.67L476.91 329.21L474.63 326.81L472.3 324.45L469.92 322.14L467.51 319.88L465.05 317.67L462.54 315.52L460 313.42L457.41 311.37L454.78 309.38L452.11 307.44L449.41 305.57L446.66 303.75L443.87 301.99L441.05 300.3L438.19 298.67L549.12 298.67L549.85 298.69L550.58 298.75L551.3 298.86L552.02 299.01L552.72 299.2L553.42 299.43L554.11 299.69L554.79 299.99L555.46 300.32L556.12 300.69L556.77 301.08L557.4 301.51L558.02 301.97L558.62 302.45L559.21 302.96L559.79 303.5L560.35 304.06L560.89 304.64L561.41 305.24L561.92 305.87L562.41 306.51L562.87 307.17L563.32 307.84L563.74 308.53L564.15 309.23L564.52 309.94L564.88 310.67L565.21 311.4L565.52 312.14L565.8 312.89L566.05 313.64L566.28 314.4L566.48 315.15L566.65 315.91L566.8 316.67L566.91 317.43L566.99 318.19L567.04 318.94L567.06 319.69L567.04 320.43L567.04 575.15L567.02 575.91L566.98 576.66L566.9 577.41L566.79 578.14L566.65 578.86L566.49 579.56L566.29 580.26L566.07 580.94L565.83 581.61L565.55 582.27L565.25 582.91L564.93 583.53L564.58 584.14L564.21 584.74L563.82 585.32L563.41 585.88L562.97 586.42L562.52 586.95L562.04 587.46L561.55 587.95L561.03 588.42L560.5 588.87L559.95 589.3L559.39 589.71L558.81 590.1L558.22 590.46L557.61 590.81L556.98 591.13L556.35 591.43L555.7 591.71L555.04 591.96L554.37 592.19L553.69 592.39L553 592.57L552.3 592.72L551.59 592.84L550.88 592.94L550.15 593.01L549.43 593.05L548.69 593.07L448 593.07L448.16 592.76L448.32 592.47L448.48 592.2L448.64 591.96L448.8 591.73L448.96 591.52L449.12 591.33L449.28 591.15L449.44 590.99L449.6 590.84L449.76 590.71L449.92 590.59L450.08 590.48L450.24 590.38L450.4 590.29L450.56 590.21L450.72 590.14L450.88 590.08L451.04 590.02L451.2 589.97L451.36 589.93L451.52 589.89L451.68 589.85L451.84 589.81L452 589.78L452.16 589.74L452.32 589.7L452.48 589.67L452.64 589.63L452.8 589.59L452.96 589.54L453.12 589.49L453.28 589.43L453.44 589.37L453.6 589.3L453.76 589.22L453.92 589.13L454.08 589.03L454.24 588.92L454.4 588.8L450.08 587.7L445.77 586.57L441.46 585.41L437.16 584.23L432.87 583.01L428.58 581.77L424.3 580.5L420.03 579.2L415.77 577.87L411.51 576.51L407.27 575.12L403.03 573.7L398.81 572.26L394.59 570.77L390.39 569.26L386.19 567.72L382.01 566.14L377.85 564.54L373.69 562.9L369.55 561.23L365.42 559.52L361.3 557.78L357.2 556.01L353.12 554.21L349.05 552.37L344.99 550.5L340.95 548.59L336.93 546.65L332.93 544.67L328.94 542.66L324.97 540.61L321.02 538.53L317.09 536.41L313.18 534.25L309.28 532.06L305.41 529.83L301.56 527.56L297.73 525.26L293.92 522.91L290.13 520.53L290.39 522.35L290.66 524.17L290.93 525.98L291.21 527.78L291.49 529.58L291.78 531.38L292.08 533.17L292.38 534.96L292.69 536.74L293.01 538.53L293.33 540.31L293.65 542.09L293.99 543.87L294.33 545.64L294.67 547.42L295.02 549.2L295.38 550.98L295.74 552.76L296.11 554.54L296.48 556.32L296.86 558.11L297.24 559.89L297.63 561.68L298.03 563.48L298.43 565.28L298.84 567.08L299.25 568.89L299.66 570.71L300.09 572.53L300.51 574.35L300.95 576.19L301.38 578.03L301.83 579.88L302.27 581.73L302.73 583.6L303.19 585.47L303.65 587.36L304.12 589.25L304.59 591.15L305.07 593.07L280.32 593.07L279.31 589.22L278.32 585.35L277.35 581.47L276.41 577.57L275.49 573.66L274.59 569.73L273.72 565.79L272.88 561.83L272.06 557.86L271.27 553.88L270.5 549.89L269.76 545.88L269.05 541.86L268.36 537.84L267.7 533.8L267.08 529.76L266.48 525.7L265.91 521.64L265.36 517.57L264.85 513.49L264.37 509.41L263.92 505.32L263.5 501.23L263.12 497.13L262.76 493.03L262.44 488.92L262.15 484.81L261.89 480.7L261.67 476.58L261.48 472.47L261.33 468.35L261.21 464.23L261.12 460.12L261.07 456L261.06 451.89L261.08 447.78L261.14 443.67L261.24 439.56L261.37 435.46L261.55 431.36L259.6 432.9L257.66 434.45L255.72 436L253.79 437.57L251.87 439.14L249.95 440.72L248.04 442.31L246.14 443.9L244.24 445.5L242.35 447.11L240.46 448.73L238.58 450.36L236.71 451.99L234.85 453.63L232.99 455.28L231.13 456.93L229.29 458.6L227.45 460.27L225.61 461.94L223.79 463.63L221.97 465.32L220.15 467.02L218.34 468.72L216.54 470.44L214.75 472.16L212.96 473.88L211.18 475.62L209.4 477.36L207.63 479.11L205.87 480.86L204.11 482.62L202.36 484.39L200.62 486.16L198.88 487.95L197.15 489.73L195.42 491.53L193.7 493.33L191.99 495.14L190.29 496.95L188.59 498.77L189.48 501.68L190.41 504.56L191.4 507.43L192.43 510.27L193.52 513.1L194.65 515.9L195.82 518.68L197.04 521.44L198.31 524.18L199.63 526.89L200.98 529.57L202.39 532.23L203.83 534.86L205.32 537.47L206.86 540.05L208.43 542.59L210.05 545.11L211.71 547.6L213.41 550.06L215.15 552.48L216.93 554.87L218.75 557.23L220.6 559.55L222.5 561.84L224.44 564.09L226.41 566.31L228.42 568.49L230.47 570.63L232.55 572.73L234.67 574.79L236.82 576.82L239.01 578.8L241.23 580.73L243.49 582.63L245.78 584.48L248.1 586.29L250.45 588.05L252.84 589.77L255.26 591.44L257.71 593.07L148.48 593.07L147.75 593.05L147.02 593.01L146.3 592.94L145.59 592.84L144.89 592.72L144.2 592.57L143.52 592.39L142.85 592.19L142.19 591.96L141.54 591.71L140.9 591.43L140.28 591.13L139.67 590.81L139.08 590.46L138.5 590.1L137.93 589.71L137.38 589.3L136.85 588.87L136.34 588.42L135.84 587.95L135.36 587.46L134.9 586.95L134.46 586.42L134.04 585.88L133.64 585.32L133.26 584.74L132.91 584.14L132.58 583.53L132.27 582.91L131.98 582.27L131.72 581.61L131.48 580.94L131.27 580.26L131.09 579.56L130.93 578.86L130.8 578.14L130.69 577.41L130.62 576.66L130.58 575.91L130.56 575.15L130.13 301.23L97.28 265.39L96.94 264.74L96.63 264.09L96.35 263.43L96.1 262.76L95.88 262.08L95.68 261.4L95.51 260.72L95.37 260.03L95.25 259.34L95.17 258.64L95.11 257.94L95.07 257.25L95.06 256.55L95.08 255.85L95.13 255.16L95.2 254.46L95.29 253.77L95.42 253.09L95.56 252.41L95.73 251.73L95.93 251.06L96.15 250.4L96.4 249.75L96.67 249.11L96.96 248.47L97.28 247.85L97.62 247.23L97.98 246.63L98.37 246.04L98.78 245.47L99.21 244.91L99.67 244.36L100.15 243.83L100.65 243.32L101.17 242.82L101.72 242.35L102.28 241.89L102.87 241.45L103.48 241.04L104.11 240.64L448 31.57L448.68 31.2L449.36 30.87L450.05 30.56L450.74 30.28L451.44 30.03L452.15 29.81L452.86 29.62L453.57 29.45L454.28 29.32L454.99 29.21L455.71 29.14L456.42 29.09L457.13 29.06L457.84 29.07L458.55 29.1ZM517.27 438.58L514.11 441.73L510.94 444.87L507.74 447.98L504.52 451.08L501.28 454.15L498.02 457.2L494.74 460.23L491.43 463.24L488.11 466.22L484.76 469.18L481.4 472.12L478.01 475.03L474.6 477.92L471.17 480.78L467.71 483.61L464.24 486.42L460.74 489.2L457.23 491.95L453.69 494.67L450.13 497.36L446.55 500.02L442.94 502.65L439.32 505.26L435.67 507.82L432 510.36L428.31 512.87L424.6 515.34L420.86 517.77L417.1 520.18L413.32 522.54L409.52 524.88L405.7 527.17L401.85 529.43L397.99 531.65L394.1 533.84L390.18 535.98L386.25 538.09L382.29 540.16L384.6 541.08L386.91 542L389.22 542.9L391.53 543.8L393.85 544.68L396.17 545.56L398.5 546.42L400.83 547.28L403.16 548.12L405.49 548.96L407.83 549.79L410.17 550.6L412.52 551.41L414.86 552.21L417.21 553L419.57 553.78L421.92 554.55L424.28 555.31L426.65 556.06L429.01 556.8L431.38 557.53L433.76 558.25L436.13 558.96L438.51 559.67L440.89 560.36L443.28 561.04L445.67 561.72L448.06 562.38L450.45 563.04L452.85 563.68L455.25 564.32L457.66 564.94L460.07 565.56L462.48 566.16L464.89 566.76L467.31 567.35L469.73 567.92L472.16 568.49L474.58 569.05L477.01 569.6L479.26 567.18L481.46 564.72L483.6 562.23L485.7 559.7L487.75 557.14L489.74 554.54L491.68 551.9L493.57 549.24L495.41 546.54L497.19 543.81L498.92 541.05L500.6 538.25L502.23 535.43L503.8 532.58L505.31 529.71L506.77 526.8L508.18 523.87L509.52 520.92L510.82 517.94L512.05 514.93L513.23 511.91L514.36 508.86L515.42 505.78L516.43 502.69L517.38 499.58L518.27 496.45L519.1 493.3L519.87 490.13L520.58 486.94L521.23 483.74L521.83 480.52L522.36 477.29L522.83 474.04L523.23 470.78L523.58 467.51L523.87 464.23L524.09 460.93L524.25 457.63L524.34 454.31L524.37 450.99L524.37 450.54L524.37 450.09L524.37 449.64L524.37 449.18L524.37 448.73L524.37 448.27L524.37 447.81L524.37 447.35L524.36 446.89L524.36 446.43L524.36 445.97L524.35 445.51L524.34 445.04L524.34 444.58L524.33 444.11L524.32 443.64L524.31 443.17L524.3 442.7L524.28 442.23L524.27 441.76L524.25 441.29L524.23 440.81L524.21 440.34L524.19 439.87L524.17 439.39L524.14 438.92L524.11 438.44L524.08 437.96L524.05 437.48L524.01 437.01L523.98 436.53L523.94 436.05L523.89 435.57L523.85 435.09L523.8 434.61L523.75 434.13L523.7 433.65L523.64 433.17L523.58 432.69L523.52 432.21L520.41 435.4L517.27 438.58ZM225.1 338.04L222.96 340.51L220.86 343.01L218.81 345.55L216.82 348.13L214.88 350.74L212.99 353.38L211.15 356.06L209.37 358.77L207.64 361.52L205.96 364.29L204.33 367.1L202.76 369.93L201.25 372.8L199.79 375.69L198.38 378.61L197.04 381.55L195.74 384.52L194.51 387.52L193.33 390.54L192.2 393.58L191.14 396.65L190.13 399.74L189.18 402.84L188.29 405.97L187.46 409.12L186.69 412.28L185.98 415.47L185.33 418.67L184.73 421.88L184.2 425.11L183.73 428.36L183.33 431.62L182.98 434.89L182.69 438.17L182.47 441.47L182.31 444.77L182.22 448.09L182.19 451.41L182.19 451.86L182.19 452.31L182.19 452.76L182.19 453.22L182.19 453.67L182.19 454.13L182.19 454.59L182.19 455.05L182.2 455.51L182.2 455.97L182.2 456.43L182.21 456.89L182.22 457.36L182.22 457.82L182.23 458.29L182.24 458.76L182.25 459.23L182.26 459.7L182.28 460.17L182.29 460.64L182.31 461.11L182.33 461.59L182.35 462.06L182.37 462.53L182.39 463.01L182.42 463.48L182.45 463.96L182.48 464.44L182.51 464.92L182.55 465.39L182.58 465.87L182.62 466.35L182.67 466.83L182.71 467.31L182.76 467.79L182.81 468.27L182.86 468.75L182.92 469.23L182.98 469.71L183.04 470.19L186.19 467L189.35 463.82L192.53 460.67L195.74 457.53L198.96 454.42L202.2 451.33L205.46 448.25L208.75 445.2L212.05 442.17L215.37 439.17L218.71 436.18L222.07 433.23L225.45 430.29L228.84 427.39L232.26 424.5L235.7 421.65L239.16 418.82L242.64 416.02L246.14 413.25L249.65 410.51L253.19 407.79L256.75 405.11L260.33 402.46L263.93 399.84L267.54 397.25L271.18 394.69L274.84 392.17L278.52 389.68L282.22 387.23L285.94 384.81L289.68 382.42L293.44 380.07L297.22 377.76L301.02 375.49L304.85 373.25L308.69 371.06L312.55 368.9L316.44 366.78L320.34 364.7L324.27 362.67L321.96 361.74L319.65 360.83L317.34 359.93L315.03 359.03L312.71 358.15L310.39 357.27L308.06 356.41L305.73 355.55L303.4 354.7L301.07 353.87L298.73 353.04L296.39 352.22L294.04 351.41L291.7 350.62L289.35 349.83L286.99 349.05L284.64 348.28L282.28 347.52L279.91 346.77L277.55 346.03L275.18 345.3L272.8 344.57L270.43 343.86L268.05 343.16L265.67 342.47L263.28 341.78L260.89 341.11L258.5 340.45L256.11 339.79L253.71 339.15L251.31 338.51L248.9 337.89L246.49 337.27L244.08 336.66L241.67 336.07L239.25 335.48L236.83 334.9L234.4 334.33L231.98 333.78L229.55 333.23L227.3 335.61L225.1 338.04ZM147.2 288L212.48 246.19L223.57 184.32L158.29 226.13L147.2 288ZM266.24 213.33L331.95 172.37L343.89 110.93L278.19 151.89L266.24 213.33ZM382.72 142.93L448.85 100.69L458.24 39.68L393.39 81.07L382.72 142.93Z" id="a8fGAhPLw"></path><linearGradient id="gradientaYphlIqcL" gradientUnits="userSpaceOnUse" x1="331.06" y1="29.06" x2="331.06" y2="593.07"><stop style="stop-color: #ff0101;stop-opacity: 1" offset="0%"></stop><stop style="stop-color: #010000;stop-opacity: 1" offset="100%"></stop></linearGradient><mask id="maskafvUTfVzx" x="89.06" y="23.06" width="483.99" height="576" maskUnits="userSpaceOnUse"><rect x="89.06" y="23.06" width="483.99" height="576" fill="white"></rect><use xlink:href="#a8fGAhPLw" opacity="1" fill="black"></use></mask></defs><g><g><g><use xlink:href="#b6j11PldTH" opacity="1" fill="#000000" fill-opacity="0"></use><g><use xlink:href="#b6j11PldTH" opacity="1" fill-opacity="0" stroke="#000000" stroke-width="1" stroke-opacity="0"></use></g></g><g><use xlink:href="#afvwTpEoa" opacity="1" fill="#000000" fill-opacity="0"></use><g><use xlink:href="#afvwTpEoa" opacity="1" fill-opacity="0" stroke="#000000" stroke-width="1" stroke-opacity="0"></use></g></g><g><use xlink:href="#bYwLvUrl1" opacity="1" fill="#000000" fill-opacity="0"></use><g><use xlink:href="#bYwLvUrl1" opacity="1" fill-opacity="0" stroke="#000000" stroke-width="1" stroke-opacity="0"></use></g></g><g><use xlink:href="#a8fGAhPLw" opacity="1" fill="url(#gradientaYphlIqcL)"></use><g mask="url(#maskafvUTfVzx)"><use xlink:href="#a8fGAhPLw" opacity="1" fill-opacity="0" stroke="#000000" stroke-width="6" stroke-opacity="1"></use></g><g><filter id="shadow10093506" x="82.06" y="16.06" width="502.99" height="591" filterUnits="userSpaceOnUse" primitiveUnits="userSpaceOnUse"><feFlood></feFlood><feComposite in2="SourceAlpha" operator="out"></feComposite><feGaussianBlur stdDeviation="1"></feGaussianBlur><feOffset dx="5" dy="1" result="afterOffset"></feOffset><feFlood flood-color="#f80000" flood-opacity="0.5"></feFlood><feComposite in2="afterOffset" operator="in"></feComposite><feMorphology operator="dilate" radius="1"></feMorphology><feComposite in2="SourceAlpha" operator="in"></feComposite></filter><path d="M458.55 29.1L459.26 29.16L459.96 29.24L460.65 29.35L461.34 29.49L462.03 29.65L462.7 29.84L463.37 30.06L464.03 30.3L464.68 30.56L465.32 30.85L465.95 31.16L466.57 31.5L467.17 31.86L467.76 32.24L468.34 32.65L468.9 33.08L469.45 33.54L469.98 34.02L470.49 34.52L470.99 35.04L471.47 35.58L471.92 36.15L472.36 36.74L472.78 37.34L473.17 37.97L491.09 82.35L491.43 82.99L491.74 83.64L492.02 84.3L492.27 84.96L492.5 85.63L492.69 86.3L492.86 86.98L493 87.66L493.12 88.34L493.21 89.03L493.27 89.71L493.3 90.4L493.31 91.08L493.29 91.76L493.25 92.44L493.18 93.12L493.08 93.79L492.96 94.46L492.81 95.13L492.64 95.79L492.44 96.44L492.22 97.08L491.98 97.72L491.71 98.35L491.41 98.97L491.1 99.58L490.76 100.18L490.39 100.77L490 101.34L489.59 101.91L489.16 102.46L488.7 102.99L488.23 103.51L487.73 104.01L487.2 104.5L486.66 104.97L486.09 105.42L485.5 105.86L484.9 106.27L484.27 106.67L483.88 106.91L482.74 107.62L480.88 108.78L478.32 110.36L475.1 112.36L471.25 114.76L466.79 117.52L461.77 120.63L456.2 124.08L450.13 127.85L443.57 131.9L436.56 136.24L429.14 140.83L421.32 145.65L413.14 150.7L404.64 155.94L395.84 161.36L386.77 166.94L377.46 172.66L367.95 178.51L358.26 184.45L348.42 190.48L338.46 196.56L328.42 202.7L318.33 208.85L308.21 215.02L298.09 221.16L288.02 227.28L278 233.34L268.09 239.33L258.3 245.22L248.66 251.01L239.22 256.67L229.99 262.17L221.01 267.51L212.31 272.66L203.92 277.6L195.87 282.31L188.19 286.78L180.91 290.99L168.11 298.24L268.8 298.24L268.35 298.86L267.91 299.45L267.46 300.01L267.02 300.54L266.58 301.05L266.14 301.52L265.7 301.97L265.26 302.39L264.83 302.79L264.39 303.17L263.96 303.52L263.53 303.86L263.1 304.17L262.67 304.47L262.24 304.76L261.81 305.03L261.38 305.28L260.96 305.52L260.53 305.75L260.11 305.97L259.68 306.19L259.26 306.39L258.84 306.59L258.42 306.78L258 306.97L257.58 307.16L257.16 307.34L256.74 307.53L256.32 307.71L255.9 307.9L255.48 308.09L255.06 308.29L254.65 308.49L254.23 308.7L253.81 308.92L253.4 309.15L252.98 309.39L252.57 309.64L252.15 309.91L251.73 310.19L256.05 311.32L260.36 312.48L264.67 313.68L268.97 314.9L273.26 316.15L277.55 317.43L281.83 318.74L286.1 320.08L290.37 321.45L294.62 322.85L298.87 324.28L303.1 325.75L307.33 327.24L311.54 328.76L315.75 330.32L319.94 331.9L324.12 333.52L328.29 335.17L332.44 336.85L336.59 338.56L340.72 340.3L344.83 342.08L348.93 343.89L353.02 345.73L357.09 347.6L361.14 349.51L365.18 351.45L369.2 353.42L373.21 355.43L377.19 357.47L381.16 359.54L385.11 361.65L389.04 363.79L392.96 365.96L396.85 368.17L400.72 370.41L404.57 372.69L408.4 375L412.21 377.35L416 379.73L415.71 377.72L415.41 375.72L415.1 373.73L414.78 371.74L414.46 369.76L414.13 367.78L413.79 365.81L413.45 363.85L413.09 361.89L412.73 359.93L412.37 357.97L411.99 356.01L411.61 354.06L411.22 352.1L410.82 350.15L410.42 348.19L410.01 346.23L409.6 344.26L409.18 342.29L408.75 340.32L408.31 338.34L407.87 336.36L407.42 334.36L406.97 332.36L406.51 330.35L406.04 328.34L405.57 326.31L405.09 324.27L404.61 322.22L404.12 320.15L403.63 318.08L403.12 315.99L402.62 313.88L402.11 311.76L401.59 309.62L401.07 307.47L400.54 305.3L400.01 303.11L399.47 300.9L398.93 298.67L424.11 298.67L425.18 303.13L426.24 307.58L427.27 312L428.27 316.39L429.26 320.77L430.21 325.12L431.15 329.46L432.05 333.77L432.93 338.07L433.79 342.35L434.61 346.62L435.41 350.87L436.18 355.11L436.92 359.34L437.64 363.55L438.32 367.75L438.97 371.95L439.6 376.13L440.19 380.31L440.75 384.48L441.27 388.65L441.77 392.81L442.23 396.96L442.66 401.12L443.06 405.27L443.42 409.42L443.74 413.58L444.03 417.73L444.29 421.89L444.51 426.05L444.69 430.21L444.83 434.38L444.94 438.56L445.01 442.74L445.04 446.93L445.03 451.13L444.98 455.35L444.89 459.57L444.76 463.8L444.59 468.05L446.54 466.51L448.48 464.97L450.41 463.42L452.34 461.87L454.27 460.31L456.18 458.75L458.09 457.18L460 455.6L461.9 454.02L463.79 452.43L465.67 450.84L467.55 449.24L469.42 447.64L471.29 446.02L473.15 444.41L475 442.78L476.85 441.15L478.69 439.51L480.52 437.87L482.35 436.21L484.17 434.55L485.98 432.89L487.79 431.21L489.59 429.53L491.39 427.84L493.18 426.14L494.96 424.44L496.73 422.72L498.5 421L500.27 419.27L502.02 417.54L503.77 415.79L505.52 414.03L507.26 412.27L508.99 410.5L510.71 408.71L512.43 406.92L514.14 405.12L515.85 403.31L517.55 401.49L516.59 398.27L515.57 395.07L514.49 391.88L513.35 388.72L512.16 385.58L510.91 382.46L509.6 379.37L508.23 376.3L506.81 373.26L505.33 370.25L503.79 367.26L502.21 364.31L500.56 361.39L498.87 358.5L497.12 355.65L495.33 352.83L493.48 350.04L491.58 347.3L489.63 344.59L487.63 341.92L485.58 339.29L483.48 336.71L481.34 334.16L479.15 331.67L476.91 329.21L474.63 326.81L472.3 324.45L469.92 322.14L467.51 319.88L465.05 317.67L462.54 315.52L460 313.42L457.41 311.37L454.78 309.38L452.11 307.44L449.41 305.57L446.66 303.75L443.87 301.99L441.05 300.3L438.19 298.67L549.12 298.67L549.85 298.69L550.58 298.75L551.3 298.86L552.02 299.01L552.72 299.2L553.42 299.43L554.11 299.69L554.79 299.99L555.46 300.32L556.12 300.69L556.77 301.08L557.4 301.51L558.02 301.97L558.62 302.45L559.21 302.96L559.79 303.5L560.35 304.06L560.89 304.64L561.41 305.24L561.92 305.87L562.41 306.51L562.87 307.17L563.32 307.84L563.74 308.53L564.15 309.23L564.52 309.94L564.88 310.67L565.21 311.4L565.52 312.14L565.8 312.89L566.05 313.64L566.28 314.4L566.48 315.15L566.65 315.91L566.8 316.67L566.91 317.43L566.99 318.19L567.04 318.94L567.06 319.69L567.04 320.43L567.04 575.15L567.02 575.91L566.98 576.66L566.9 577.41L566.79 578.14L566.65 578.86L566.49 579.56L566.29 580.26L566.07 580.94L565.83 581.61L565.55 582.27L565.25 582.91L564.93 583.53L564.58 584.14L564.21 584.74L563.82 585.32L563.41 585.88L562.97 586.42L562.52 586.95L562.04 587.46L561.55 587.95L561.03 588.42L560.5 588.87L559.95 589.3L559.39 589.71L558.81 590.1L558.22 590.46L557.61 590.81L556.98 591.13L556.35 591.43L555.7 591.71L555.04 591.96L554.37 592.19L553.69 592.39L553 592.57L552.3 592.72L551.59 592.84L550.88 592.94L550.15 593.01L549.43 593.05L548.69 593.07L448 593.07L448.16 592.76L448.32 592.47L448.48 592.2L448.64 591.96L448.8 591.73L448.96 591.52L449.12 591.33L449.28 591.15L449.44 590.99L449.6 590.84L449.76 590.71L449.92 590.59L450.08 590.48L450.24 590.38L450.4 590.29L450.56 590.21L450.72 590.14L450.88 590.08L451.04 590.02L451.2 589.97L451.36 589.93L451.52 589.89L451.68 589.85L451.84 589.81L452 589.78L452.16 589.74L452.32 589.7L452.48 589.67L452.64 589.63L452.8 589.59L452.96 589.54L453.12 589.49L453.28 589.43L453.44 589.37L453.6 589.3L453.76 589.22L453.92 589.13L454.08 589.03L454.24 588.92L454.4 588.8L450.08 587.7L445.77 586.57L441.46 585.41L437.16 584.23L432.87 583.01L428.58 581.77L424.3 580.5L420.03 579.2L415.77 577.87L411.51 576.51L407.27 575.12L403.03 573.7L398.81 572.26L394.59 570.77L390.39 569.26L386.19 567.72L382.01 566.14L377.85 564.54L373.69 562.9L369.55 561.23L365.42 559.52L361.3 557.78L357.2 556.01L353.12 554.21L349.05 552.37L344.99 550.5L340.95 548.59L336.93 546.65L332.93 544.67L328.94 542.66L324.97 540.61L321.02 538.53L317.09 536.41L313.18 534.25L309.28 532.06L305.41 529.83L301.56 527.56L297.73 525.26L293.92 522.91L290.13 520.53L290.39 522.35L290.66 524.17L290.93 525.98L291.21 527.78L291.49 529.58L291.78 531.38L292.08 533.17L292.38 534.96L292.69 536.74L293.01 538.53L293.33 540.31L293.65 542.09L293.99 543.87L294.33 545.64L294.67 547.42L295.02 549.2L295.38 550.98L295.74 552.76L296.11 554.54L296.48 556.32L296.86 558.11L297.24 559.89L297.63 561.68L298.03 563.48L298.43 565.28L298.84 567.08L299.25 568.89L299.66 570.71L300.09 572.53L300.51 574.35L300.95 576.19L301.38 578.03L301.83 579.88L302.27 581.73L302.73 583.6L303.19 585.47L303.65 587.36L304.12 589.25L304.59 591.15L305.07 593.07L280.32 593.07L279.31 589.22L278.32 585.35L277.35 581.47L276.41 577.57L275.49 573.66L274.59 569.73L273.72 565.79L272.88 561.83L272.06 557.86L271.27 553.88L270.5 549.89L269.76 545.88L269.05 541.86L268.36 537.84L267.7 533.8L267.08 529.76L266.48 525.7L265.91 521.64L265.36 517.57L264.85 513.49L264.37 509.41L263.92 505.32L263.5 501.23L263.12 497.13L262.76 493.03L262.44 488.92L262.15 484.81L261.89 480.7L261.67 476.58L261.48 472.47L261.33 468.35L261.21 464.23L261.12 460.12L261.07 456L261.06 451.89L261.08 447.78L261.14 443.67L261.24 439.56L261.37 435.46L261.55 431.36L259.6 432.9L257.66 434.45L255.72 436L253.79 437.57L251.87 439.14L249.95 440.72L248.04 442.31L246.14 443.9L244.24 445.5L242.35 447.11L240.46 448.73L238.58 450.36L236.71 451.99L234.85 453.63L232.99 455.28L231.13 456.93L229.29 458.6L227.45 460.27L225.61 461.94L223.79 463.63L221.97 465.32L220.15 467.02L218.34 468.72L216.54 470.44L214.75 472.16L212.96 473.88L211.18 475.62L209.4 477.36L207.63 479.11L205.87 480.86L204.11 482.62L202.36 484.39L200.62 486.16L198.88 487.95L197.15 489.73L195.42 491.53L193.7 493.33L191.99 495.14L190.29 496.95L188.59 498.77L189.48 501.68L190.41 504.56L191.4 507.43L192.43 510.27L193.52 513.1L194.65 515.9L195.82 518.68L197.04 521.44L198.31 524.18L199.63 526.89L200.98 529.57L202.39 532.23L203.83 534.86L205.32 537.47L206.86 540.05L208.43 542.59L210.05 545.11L211.71 547.6L213.41 550.06L215.15 552.48L216.93 554.87L218.75 557.23L220.6 559.55L222.5 561.84L224.44 564.09L226.41 566.31L228.42 568.49L230.47 570.63L232.55 572.73L234.67 574.79L236.82 576.82L239.01 578.8L241.23 580.73L243.49 582.63L245.78 584.48L248.1 586.29L250.45 588.05L252.84 589.77L255.26 591.44L257.71 593.07L148.48 593.07L147.75 593.05L147.02 593.01L146.3 592.94L145.59 592.84L144.89 592.72L144.2 592.57L143.52 592.39L142.85 592.19L142.19 591.96L141.54 591.71L140.9 591.43L140.28 591.13L139.67 590.81L139.08 590.46L138.5 590.1L137.93 589.71L137.38 589.3L136.85 588.87L136.34 588.42L135.84 587.95L135.36 587.46L134.9 586.95L134.46 586.42L134.04 585.88L133.64 585.32L133.26 584.74L132.91 584.14L132.58 583.53L132.27 582.91L131.98 582.27L131.72 581.61L131.48 580.94L131.27 580.26L131.09 579.56L130.93 578.86L130.8 578.14L130.69 577.41L130.62 576.66L130.58 575.91L130.56 575.15L130.13 301.23L97.28 265.39L96.94 264.74L96.63 264.09L96.35 263.43L96.1 262.76L95.88 262.08L95.68 261.4L95.51 260.72L95.37 260.03L95.25 259.34L95.17 258.64L95.11 257.94L95.07 257.25L95.06 256.55L95.08 255.85L95.13 255.16L95.2 254.46L95.29 253.77L95.42 253.09L95.56 252.41L95.73 251.73L95.93 251.06L96.15 250.4L96.4 249.75L96.67 249.11L96.96 248.47L97.28 247.85L97.62 247.23L97.98 246.63L98.37 246.04L98.78 245.47L99.21 244.91L99.67 244.36L100.15 243.83L100.65 243.32L101.17 242.82L101.72 242.35L102.28 241.89L102.87 241.45L103.48 241.04L104.11 240.64L448 31.57L448.68 31.2L449.36 30.87L450.05 30.56L450.74 30.28L451.44 30.03L452.15 29.81L452.86 29.62L453.57 29.45L454.28 29.32L454.99 29.21L455.71 29.14L456.42 29.09L457.13 29.06L457.84 29.07L458.55 29.1ZM517.27 438.58L514.11 441.73L510.94 444.87L507.74 447.98L504.52 451.08L501.28 454.15L498.02 457.2L494.74 460.23L491.43 463.24L488.11 466.22L484.76 469.18L481.4 472.12L478.01 475.03L474.6 477.92L471.17 480.78L467.71 483.61L464.24 486.42L460.74 489.2L457.23 491.95L453.69 494.67L450.13 497.36L446.55 500.02L442.94 502.65L439.32 505.26L435.67 507.82L432 510.36L428.31 512.87L424.6 515.34L420.86 517.77L417.1 520.18L413.32 522.54L409.52 524.88L405.7 527.17L401.85 529.43L397.99 531.65L394.1 533.84L390.18 535.98L386.25 538.09L382.29 540.16L384.6 541.08L386.91 542L389.22 542.9L391.53 543.8L393.85 544.68L396.17 545.56L398.5 546.42L400.83 547.28L403.16 548.12L405.49 548.96L407.83 549.79L410.17 550.6L412.52 551.41L414.86 552.21L417.21 553L419.57 553.78L421.92 554.55L424.28 555.31L426.65 556.06L429.01 556.8L431.38 557.53L433.76 558.25L436.13 558.96L438.51 559.67L440.89 560.36L443.28 561.04L445.67 561.72L448.06 562.38L450.45 563.04L452.85 563.68L455.25 564.32L457.66 564.94L460.07 565.56L462.48 566.16L464.89 566.76L467.31 567.35L469.73 567.92L472.16 568.49L474.58 569.05L477.01 569.6L479.26 567.18L481.46 564.72L483.6 562.23L485.7 559.7L487.75 557.14L489.74 554.54L491.68 551.9L493.57 549.24L495.41 546.54L497.19 543.81L498.92 541.05L500.6 538.25L502.23 535.43L503.8 532.58L505.31 529.71L506.77 526.8L508.18 523.87L509.52 520.92L510.82 517.94L512.05 514.93L513.23 511.91L514.36 508.86L515.42 505.78L516.43 502.69L517.38 499.58L518.27 496.45L519.1 493.3L519.87 490.13L520.58 486.94L521.23 483.74L521.83 480.52L522.36 477.29L522.83 474.04L523.23 470.78L523.58 467.51L523.87 464.23L524.09 460.93L524.25 457.63L524.34 454.31L524.37 450.99L524.37 450.54L524.37 450.09L524.37 449.64L524.37 449.18L524.37 448.73L524.37 448.27L524.37 447.81L524.37 447.35L524.36 446.89L524.36 446.43L524.36 445.97L524.35 445.51L524.34 445.04L524.34 444.58L524.33 444.11L524.32 443.64L524.31 443.17L524.3 442.7L524.28 442.23L524.27 441.76L524.25 441.29L524.23 440.81L524.21 440.34L524.19 439.87L524.17 439.39L524.14 438.92L524.11 438.44L524.08 437.96L524.05 437.48L524.01 437.01L523.98 436.53L523.94 436.05L523.89 435.57L523.85 435.09L523.8 434.61L523.75 434.13L523.7 433.65L523.64 433.17L523.58 432.69L523.52 432.21L520.41 435.4L517.27 438.58ZM225.1 338.04L222.96 340.51L220.86 343.01L218.81 345.55L216.82 348.13L214.88 350.74L212.99 353.38L211.15 356.06L209.37 358.77L207.64 361.52L205.96 364.29L204.33 367.1L202.76 369.93L201.25 372.8L199.79 375.69L198.38 378.61L197.04 381.55L195.74 384.52L194.51 387.52L193.33 390.54L192.2 393.58L191.14 396.65L190.13 399.74L189.18 402.84L188.29 405.97L187.46 409.12L186.69 412.28L185.98 415.47L185.33 418.67L184.73 421.88L184.2 425.11L183.73 428.36L183.33 431.62L182.98 434.89L182.69 438.17L182.47 441.47L182.31 444.77L182.22 448.09L182.19 451.41L182.19 451.86L182.19 452.31L182.19 452.76L182.19 453.22L182.19 453.67L182.19 454.13L182.19 454.59L182.19 455.05L182.2 455.51L182.2 455.97L182.2 456.43L182.21 456.89L182.22 457.36L182.22 457.82L182.23 458.29L182.24 458.76L182.25 459.23L182.26 459.7L182.28 460.17L182.29 460.64L182.31 461.11L182.33 461.59L182.35 462.06L182.37 462.53L182.39 463.01L182.42 463.48L182.45 463.96L182.48 464.44L182.51 464.92L182.55 465.39L182.58 465.87L182.62 466.35L182.67 466.83L182.71 467.31L182.76 467.79L182.81 468.27L182.86 468.75L182.92 469.23L182.98 469.71L183.04 470.19L186.19 467L189.35 463.82L192.53 460.67L195.74 457.53L198.96 454.42L202.2 451.33L205.46 448.25L208.75 445.2L212.05 442.17L215.37 439.17L218.71 436.18L222.07 433.23L225.45 430.29L228.84 427.39L232.26 424.5L235.7 421.65L239.16 418.82L242.64 416.02L246.14 413.25L249.65 410.51L253.19 407.79L256.75 405.11L260.33 402.46L263.93 399.84L267.54 397.25L271.18 394.69L274.84 392.17L278.52 389.68L282.22 387.23L285.94 384.81L289.68 382.42L293.44 380.07L297.22 377.76L301.02 375.49L304.85 373.25L308.69 371.06L312.55 368.9L316.44 366.78L320.34 364.7L324.27 362.67L321.96 361.74L319.65 360.83L317.34 359.93L315.03 359.03L312.71 358.15L310.39 357.27L308.06 356.41L305.73 355.55L303.4 354.7L301.07 353.87L298.73 353.04L296.39 352.22L294.04 351.41L291.7 350.62L289.35 349.83L286.99 349.05L284.64 348.28L282.28 347.52L279.91 346.77L277.55 346.03L275.18 345.3L272.8 344.57L270.43 343.86L268.05 343.16L265.67 342.47L263.28 341.78L260.89 341.11L258.5 340.45L256.11 339.79L253.71 339.15L251.31 338.51L248.9 337.89L246.49 337.27L244.08 336.66L241.67 336.07L239.25 335.48L236.83 334.9L234.4 334.33L231.98 333.78L229.55 333.23L227.3 335.61L225.1 338.04ZM147.2 288L212.48 246.19L223.57 184.32L158.29 226.13L147.2 288ZM266.24 213.33L331.95 172.37L343.89 110.93L278.19 151.89L266.24 213.33ZM382.72 142.93L448.85 100.69L458.24 39.68L393.39 81.07L382.72 142.93Z" id="c31UP3buBU" fill="white" fill-opacity="1" filter="url(#shadow10093506)"></path></g></g></g></g></svg>